<svg id="Layer_1" data-name="Layer 1" xmlns="http://www.w3.org/2000/svg" xmlns:xlink="http://www.w3.org/1999/xlink" viewBox="0 0 500 500"><defs><style>.cls-1{fill:url(#linear-gradient);}</style><linearGradient id="linear-gradient" x1="1.5" y1="250" x2="498.5" y2="250" gradientUnits="userSpaceOnUse"><stop offset="0" stop-color="#58c9c3"/><stop offset="1" stop-color="#719bdd"/></linearGradient></defs><title>avatar-ring</title><path class="cls-1" d="M250,498.5A248.56,248.56,0,0,1,34.46,126.25a17.12,17.12,0,0,1,29.68,17.07A214.18,214.18,0,0,0,35.74,250c0,118.14,96.12,214.26,214.26,214.26S464.26,368.14,464.26,250,368.14,35.74,250,35.74A17.12,17.12,0,1,1,250,1.5,248.5,248.5,0,0,1,425.72,425.72,246.87,246.87,0,0,1,250,498.5Z"/></svg>
