<?xml version="1.0" encoding="utf-8"?>
<!-- Generator: Adobe Illustrator 21.0.2, SVG Export Plug-In . SVG Version: 6.00 Build 0)  -->
<svg version="1.1" id="Layer_2" xmlns="http://www.w3.org/2000/svg" xmlns:xlink="http://www.w3.org/1999/xlink" x="0px" y="0px"
	 viewBox="0 0 512 512" style="enable-background:new 0 0 512 512;" xml:space="preserve">
<style type="text/css">
	.st0{fill:#20324D;}
</style>
<title>logo-live</title>
<path class="st0" d="M357.2,469.9c-20.3,9.7-41.9,16.5-64.1,20.1c-12.3,2.1-24.7,3.2-37.1,3.3c-12.4-0.1-24.8-1.2-37-3.3
	c-22.2-3.6-43.8-10.4-64.1-20.1c24.2-13.7,46-35.9,64.1-64.9c16.5-26.7,29-55.7,37-86.1c8.1,30.3,20.6,59.2,37,85.8
	C311.2,434,333,456.3,357.2,469.9z"/>
<path class="st0" d="M492.9,254.5c0.2,53.1-17.5,104.6-50.2,146.4c-65.9-12.2-120.6-86-143.1-186.2c-4.6-22-6.8-44.5-6.6-67v-129
	l0,0C408.3,37.9,492.8,137.6,492.9,254.5z"/>
<path class="st0" d="M219,18.7v128.8c0.2,22.6-2,45.1-6.5,67.2c-22.5,100.2-77.1,174-143.1,186.2C36.7,359.1,19,307.5,19.1,254.5
	c0-116.8,84.4-216.5,199.6-235.8H219z"/>
</svg>