<svg id="Layer_1" data-name="Layer 1" xmlns="http://www.w3.org/2000/svg" viewBox="0 0 500 500"><defs><style>.cls-1{fill:#fff;}</style></defs><title>menu-button</title><path class="cls-1" d="M431.16,264.38a29.64,29.64,0,0,1-21-8.71L250,95.53,89.86,255.67a29.73,29.73,0,0,1-42-42L229,32.46a29.73,29.73,0,0,1,42,0L452.19,213.62a29.73,29.73,0,0,1-21,50.75Z"/><path class="cls-1" d="M431.16,476.25a29.64,29.64,0,0,1-21-8.71L250,307.4,89.86,467.54a29.73,29.73,0,0,1-42-42L229,244.33a29.73,29.73,0,0,1,42,0L452.19,425.5a29.73,29.73,0,0,1-21,50.75Z"/></svg>

